<?xml version="1.0" encoding="iso-8859-1"?>
<!-- Generator: Adobe Illustrator 19.0.0, SVG Export Plug-In . SVG Version: 6.00 Build 0)  -->
<svg version="1.1" id="Capa_1" xmlns="http://www.w3.org/2000/svg" xmlns:xlink="http://www.w3.org/1999/xlink" x="0px" y="0px"
	 viewBox="0 0 512 512" style="enable-background:new 0 0 512 512;" xml:space="preserve">
<g>
	<g>
		<path d="M435.2,76.8H42.667C19.14,76.8,0,95.94,0,119.467V358.4c0,23.526,19.14,42.667,42.667,42.667H435.2
			c23.526,0,42.667-19.14,42.667-42.667V119.467C477.867,95.94,458.726,76.8,435.2,76.8z M460.8,358.4
			c0,14.114-11.486,25.6-25.6,25.6H42.667c-14.114,0-25.6-11.486-25.6-25.6V119.467c0-14.114,11.486-25.6,25.6-25.6H435.2
			c14.114,0,25.6,11.486,25.6,25.6V358.4z"/>
	</g>
</g>
<g>
	<g>
		<path d="M128,162.133H59.733c-4.71,0-8.533,3.823-8.533,8.533v68.267c0,4.71,3.823,8.533,8.533,8.533H128
			c4.71,0,8.533-3.823,8.533-8.533v-68.267C136.533,165.956,132.71,162.133,128,162.133z M119.467,230.4h-51.2v-51.2h51.2V230.4z"/>
	</g>
</g>
<g>
	<g>
		<rect x="59.733" y="196.267" width="25.6" height="17.067"/>
	</g>
</g>
<g>
	<g>
		<rect x="102.4" y="196.267" width="25.6" height="17.067"/>
	</g>
</g>
<g>
	<g>
		<path d="M349.867,290.133c-18.825,0-34.133,15.309-34.133,34.133c0,18.825,15.309,34.133,34.133,34.133
			c18.825,0,34.133-15.309,34.133-34.133C384,305.442,368.691,290.133,349.867,290.133z M349.867,341.333
			c-9.412,0-17.067-7.654-17.067-17.067c0-9.412,7.654-17.067,17.067-17.067c9.412,0,17.067,7.654,17.067,17.067
			C366.933,333.679,359.279,341.333,349.867,341.333z"/>
	</g>
</g>
<g>
	<g>
		<rect x="51.2" y="307.2" width="25.6" height="17.067"/>
	</g>
</g>
<g>
	<g>
		<rect x="93.867" y="307.2" width="25.6" height="17.067"/>
	</g>
</g>
<g>
	<g>
		<rect x="136.533" y="307.2" width="25.6" height="17.067"/>
	</g>
</g>
<g>
	<g>
		<rect x="179.2" y="307.2" width="25.6" height="17.067"/>
	</g>
</g>
<g>
	<g>
		<rect x="221.867" y="307.2" width="25.6" height="17.067"/>
	</g>
</g>
<g>
	<g>
		<rect x="51.2" y="273.067" width="187.733" height="17.067"/>
	</g>
</g>
<g>
	<g>
		<rect x="256" y="273.067" width="34.133" height="17.067"/>
	</g>
</g>
<g>
	<g>
		<path d="M417.98,301.568c-12.501-14.037-34.125-15.309-48.188-2.79l11.349,12.749c7.023-6.255,17.835-5.641,24.098,1.399
			c3.038,3.396,4.557,7.774,4.292,12.322c-0.256,4.548-2.287,8.73-5.683,11.759c-6.46,5.751-16.23,5.768-22.707,0l-11.349,12.749
			c6.477,5.76,14.583,8.644,22.699,8.644c8.115,0,16.23-2.884,22.707-8.636c6.81-6.067,10.846-14.43,11.375-23.526
			C427.093,317.124,424.038,308.369,417.98,301.568z"/>
	</g>
</g>
<g>
	<g>
		<rect x="264.533" y="307.2" width="25.6" height="17.067"/>
	</g>
</g>
<g>
	<g>
		<rect x="51.2" y="119.467" width="170.667" height="17.067"/>
	</g>
</g>
<g>
	<g>
		<path d="M469.333,110.933V128c14.114,0,25.6,11.486,25.6,25.6v238.933c0,14.114-11.486,25.6-25.6,25.6H76.8
			c-14.114,0-25.6-11.486-25.6-25.6H34.133c0,23.526,19.14,42.667,42.667,42.667h392.533c23.526,0,42.667-19.14,42.667-42.667V153.6
			C512,130.074,492.86,110.933,469.333,110.933z"/>
	</g>
</g>
<g>
	<g>
		<rect x="349.867" y="119.467" width="76.8" height="17.067"/>
	</g>
</g>
<g>
	<g>
		<rect x="384" y="153.6" width="42.667" height="17.067"/>
	</g>
</g>
<g>
</g>
<g>
</g>
<g>
</g>
<g>
</g>
<g>
</g>
<g>
</g>
<g>
</g>
<g>
</g>
<g>
</g>
<g>
</g>
<g>
</g>
<g>
</g>
<g>
</g>
<g>
</g>
<g>
</g>
</svg>
