<?xml version="1.0" encoding="iso-8859-1"?>
<!-- Generator: Adobe Illustrator 19.0.0, SVG Export Plug-In . SVG Version: 6.00 Build 0)  -->
<svg version="1.1" id="Capa_1" xmlns="http://www.w3.org/2000/svg" xmlns:xlink="http://www.w3.org/1999/xlink" x="0px" y="0px"
	 viewBox="0 0 511.991 511.991" style="enable-background:new 0 0 511.991 511.991;" xml:space="preserve">
<g>
	<g>
		<path d="M508.467,248.991l-46.933-34.014l30.336-49.331c1.434-2.338,1.664-5.214,0.614-7.74s-3.234-4.403-5.897-5.035
			l-56.311-13.44l9.156-57.208c0.435-2.705-0.452-5.444-2.389-7.381c-1.92-1.929-4.693-2.825-7.381-2.389l-57.207,9.156
			l-13.44-56.303c-0.632-2.662-2.509-4.855-5.035-5.905c-2.534-1.041-5.419-0.828-7.731,0.614l-49.323,30.336L262.912,3.419
			c-3.217-4.429-10.607-4.429-13.815,0l-34.014,46.933l-49.331-30.336c-2.338-1.434-5.214-1.664-7.74-0.614
			c-2.526,1.05-4.403,3.243-5.035,5.905l-13.44,56.303L82.33,72.453c-2.688-0.452-5.444,0.452-7.381,2.389
			c-1.937,1.929-2.825,4.676-2.389,7.381l9.156,57.199l-56.303,13.44c-2.662,0.631-4.855,2.509-5.905,5.035
			c-1.041,2.534-0.819,5.41,0.614,7.74l30.336,49.331L3.524,248.982C1.314,250.587,0,253.164,0,255.894
			c0,2.731,1.314,5.299,3.524,6.912l46.933,34.014l-30.336,49.323c-1.434,2.321-1.664,5.197-0.614,7.731
			c1.05,2.526,3.243,4.403,5.905,5.035l56.294,13.449l-9.156,57.207c-0.435,2.697,0.452,5.444,2.389,7.381
			c1.937,1.937,4.659,2.842,7.381,2.389l57.208-9.156l13.44,56.311c0.631,2.654,2.509,4.847,5.035,5.897
			c2.534,1.05,5.419,0.828,7.74-0.614l49.331-30.336l34.014,46.933c1.604,2.219,4.181,3.524,6.912,3.524s5.299-1.306,6.912-3.524
			l34.014-46.933l49.323,30.336c2.313,1.434,5.197,1.647,7.731,0.614c2.526-1.041,4.403-3.234,5.035-5.897l13.44-56.311
			l57.207,9.156c2.671,0.427,5.444-0.444,7.381-2.389c1.928-1.929,2.824-4.685,2.389-7.381l-9.156-57.207l56.311-13.44
			c2.654-0.631,4.855-2.509,5.897-5.035c1.05-2.534,0.819-5.41-0.614-7.731l-30.336-49.323l46.933-34.014
			c2.219-1.613,3.524-4.173,3.524-6.912S510.686,250.595,508.467,248.991z M445.141,287.63c-3.618,2.62-4.599,7.578-2.261,11.375
			l28.297,46.029l-52.54,12.544c-4.343,1.033-7.151,5.24-6.443,9.651l8.542,53.385l-53.385-8.542
			c-4.437-0.725-8.619,2.091-9.651,6.443l-12.544,52.54l-46.029-28.297c-3.78-2.338-8.755-1.348-11.375,2.261L256,488.82
			l-31.744-43.802c-1.655-2.287-4.258-3.524-6.912-3.524c-1.527,0-3.081,0.41-4.463,1.28l-46.029,28.297l-12.544-52.54
			c-1.041-4.344-5.205-7.151-9.651-6.443l-53.385,8.542l8.542-53.385c0.708-4.412-2.099-8.619-6.443-9.651l-52.54-12.544
			l28.305-46.029c2.338-3.797,1.348-8.755-2.261-11.375l-43.802-31.753l43.802-31.744c3.61-2.611,4.591-7.578,2.261-11.375
			l-28.305-46.029l52.54-12.544c4.335-1.041,7.151-5.239,6.443-9.651l-8.542-53.385l53.385,8.542
			c4.395,0.683,8.61-2.099,9.651-6.443l12.544-52.54l46.029,28.305c3.806,2.338,8.764,1.357,11.375-2.261L256,22.969l31.753,43.802
			c2.62,3.61,7.603,4.608,11.375,2.261l46.029-28.322l12.544,52.54c1.033,4.343,5.222,7.134,9.651,6.443l53.385-8.542l-8.542,53.385
			c-0.708,4.412,2.099,8.61,6.443,9.651l52.54,12.544l-28.297,46.029c-2.338,3.797-1.348,8.755,2.261,11.375l43.802,31.744
			L445.141,287.63z"/>
	</g>
</g>
<g>
	<g>
		<path d="M196.267,196.161H128c-4.71,0-8.533,3.823-8.533,8.533v170.667c0,4.719,3.823,8.533,8.533,8.533h68.267
			c4.71,0,8.533-3.814,8.533-8.533V204.694C204.8,199.984,200.977,196.161,196.267,196.161z M187.733,366.828h-51.2v-153.6h51.2
			V366.828z"/>
	</g>
</g>
<g>
	<g>
		<path d="M273.067,85.228c-4.719,0-8.533,3.823-8.533,8.533v56.201L232.9,181.595l12.066,12.066l34.133-34.133
			c1.604-1.596,2.5-3.772,2.5-6.033V103.37c14.711,3.806,25.6,17.186,25.6,33.058v51.2h17.067v-51.2
			C324.267,108.191,301.303,85.228,273.067,85.228z"/>
	</g>
</g>
<g>
	<g>
		<path d="M409.6,208.961c0-16.469-13.397-29.867-29.867-29.867h-140.8c-2.261,0-4.429,0.896-6.033,2.5l-42.667,42.667
			c-1.604,1.596-2.5,3.772-2.5,6.033v128c0,4.719,3.823,8.533,8.533,8.533h166.4c16.469,0,29.867-13.397,29.867-29.867
			c0-6.451-2.057-12.433-5.547-17.323c8.448-5.274,14.08-14.669,14.08-25.344c0-8.354-3.448-15.906-8.986-21.333
			c5.547-5.427,8.986-12.979,8.986-21.333c0-6.46-2.057-12.433-5.547-17.323C403.968,229.023,409.6,219.636,409.6,208.961z
			 M379.733,221.761H371.2c-4.719,0-8.533,3.823-8.533,8.533s3.814,8.533,8.533,8.533c7.057,0,12.8,5.743,12.8,12.8
			s-5.743,12.8-12.8,12.8c-4.719,0-8.533,3.814-8.533,8.533c0,4.719,3.814,8.533,8.533,8.533c7.057,0,12.8,5.743,12.8,12.8
			s-5.743,12.8-12.8,12.8h-8.533c-4.719,0-8.533,3.814-8.533,8.533c0,4.719,3.814,8.533,8.533,8.533c7.057,0,12.8,5.743,12.8,12.8
			s-5.743,12.8-12.8,12.8H204.8V233.827l37.666-37.666h137.267c7.057,0,12.8,5.743,12.8,12.8S386.79,221.761,379.733,221.761z"/>
	</g>
</g>
<g>
	<g>
		<rect x="153.6" y="332.694" width="17.067" height="17.067"/>
	</g>
</g>
<g>
</g>
<g>
</g>
<g>
</g>
<g>
</g>
<g>
</g>
<g>
</g>
<g>
</g>
<g>
</g>
<g>
</g>
<g>
</g>
<g>
</g>
<g>
</g>
<g>
</g>
<g>
</g>
<g>
</g>
</svg>
